<svg xmlns="http://www.w3.org/2000/svg" viewBox="0 0 1100 720" width="1100" height="720">
  <defs>
    <style>
      @import url('https://fonts.googleapis.com/css2?family=Playfair+Display:wght@400;600;700&amp;family=Inter:wght@300;400;500;600;700&amp;display=swap');
      .display { font-family: 'Playfair Display', Georgia, serif; }
      .body { font-family: 'Inter', system-ui, sans-serif; }
      .mono { font-family: 'SF Mono', 'Fira Code', monospace; }
    </style>
  </defs>

  <!-- Background -->
  <rect width="1100" height="720" fill="#2a2320" rx="12"/>

  <!-- Header -->
  <text x="24" y="42" fill="#f5efe6" font-size="26" font-weight="700" class="display">Radio Itali</text>
  <text x="175" y="42" fill="#b0a494" font-size="13" class="body">Control Plane</text>
  <text x="900" y="42" fill="#b0a494" font-size="12" class="body">Uptime: 2h 14m</text>
  <text x="1000" y="42" fill="#d4917a" font-size="12" font-weight="500" class="body">Open listener view &#8594;</text>
  <line x1="24" y1="52" x2="1076" y2="52" stroke="#7a8f6d" stroke-opacity="0.2"/>

  <!-- Stats Bar -->
  <!-- Queue -->
  <rect x="24" y="68" width="200" height="64" rx="8" fill="#352f2a" stroke="#c4654a" stroke-opacity="0.12"/>
  <rect x="24" y="68" width="200" height="3" rx="1.5" fill="#c4654a"/>
  <text x="40" y="90" fill="#b0a494" font-size="10" font-weight="600" letter-spacing="1" class="body">QUEUE</text>
  <text x="40" y="120" fill="#f5efe6" font-size="22" font-weight="700" class="body">3</text>

  <!-- Segments -->
  <rect x="236" y="68" width="200" height="64" rx="8" fill="#352f2a" stroke="#c4654a" stroke-opacity="0.12"/>
  <rect x="236" y="68" width="200" height="3" rx="1.5" fill="#c4654a"/>
  <text x="252" y="90" fill="#b0a494" font-size="10" font-weight="600" letter-spacing="1" class="body">SEGMENTS</text>
  <text x="252" y="120" fill="#f5efe6" font-size="22" font-weight="700" class="body">47</text>

  <!-- Tracks -->
  <rect x="448" y="68" width="200" height="64" rx="8" fill="#352f2a" stroke="#c4654a" stroke-opacity="0.12"/>
  <rect x="448" y="68" width="200" height="3" rx="1.5" fill="#c4654a"/>
  <text x="464" y="90" fill="#b0a494" font-size="10" font-weight="600" letter-spacing="1" class="body">TRACKS</text>
  <text x="464" y="120" fill="#f5efe6" font-size="22" font-weight="700" class="body">124</text>

  <!-- Spotify -->
  <rect x="660" y="68" width="200" height="64" rx="8" fill="#352f2a" stroke="#c4654a" stroke-opacity="0.12"/>
  <rect x="660" y="68" width="200" height="3" rx="1.5" fill="#c4654a"/>
  <text x="676" y="90" fill="#b0a494" font-size="10" font-weight="600" letter-spacing="1" class="body">SPOTIFY</text>
  <text x="676" y="120" fill="#7a8f6d" font-size="22" font-weight="700" class="body">connected</text>

  <!-- Ad Brands -->
  <rect x="872" y="68" width="204" height="64" rx="8" fill="#352f2a" stroke="#c4654a" stroke-opacity="0.12"/>
  <rect x="872" y="68" width="204" height="3" rx="1.5" fill="#c4654a"/>
  <text x="888" y="90" fill="#b0a494" font-size="10" font-weight="600" letter-spacing="1" class="body">AD BRANDS</text>
  <text x="888" y="120" fill="#f5efe6" font-size="22" font-weight="700" class="body">15</text>

  <!-- Search + Controls row -->
  <rect x="24" y="148" width="330" height="34" rx="6" fill="#352f2a" stroke="#b0a494" stroke-opacity="0.2"/>
  <text x="40" y="170" fill="#b0a494" font-size="13" class="body">Search songs...</text>
  <rect x="362" y="148" width="66" height="34" rx="6" fill="#352f2a" stroke="#b0a494" stroke-opacity="0.2"/>
  <text x="378" y="170" fill="#e8dfd3" font-size="13" font-weight="500" class="body">Search</text>

  <rect x="540" y="148" width="76" height="34" rx="6" fill="#352f2a" stroke="#b0a494" stroke-opacity="0.2"/>
  <text x="556" y="170" fill="#e8dfd3" font-size="13" font-weight="500" class="body">Shuffle</text>
  <rect x="624" y="148" width="55" height="34" rx="6" fill="#352f2a" stroke="#b0a494" stroke-opacity="0.2"/>
  <text x="640" y="170" fill="#e8dfd3" font-size="13" font-weight="500" class="body">Skip</text>
  <rect x="687" y="148" width="100" height="34" rx="6" fill="#352f2a" stroke="#b0a494" stroke-opacity="0.2"/>
  <text x="698" y="170" fill="#e8dfd3" font-size="13" font-weight="500" class="body">Clear Buffer</text>

  <!-- Host Personality Section -->
  <text x="24" y="214" fill="#c4654a" font-size="11" font-weight="600" letter-spacing="1" class="body">HOST PERSONALITY</text>
  <line x1="24" y1="222" x2="1076" y2="222" stroke="#7a8f6d" stroke-opacity="0.15"/>

  <!-- Marco Card -->
  <rect x="24" y="234" width="520" height="150" rx="8" fill="#352f2a" stroke="#c4654a" stroke-opacity="0.12"/>
  <text x="40" y="260" fill="#f5efe6" font-size="16" font-weight="600" class="display">Marco</text>
  <rect x="480" y="247" width="48" height="18" rx="4" fill="none" stroke="#b0a494" stroke-opacity="0.2"/>
  <text x="490" y="260" fill="#b0a494" font-size="9" font-weight="600" letter-spacing="0.5" class="body">RESET</text>

  <!-- Marco sliders -->
  <text x="40" y="290" fill="#b0a494" font-size="10" font-weight="600" letter-spacing="0.8" class="body">ENERGY</text>
  <rect x="120" y="284" width="350" height="4" rx="2" fill="#3d3530"/>
  <rect x="120" y="284" width="245" height="4" rx="2" fill="#c4654a" opacity="0.6"/>
  <circle cx="365" cy="286" r="7" fill="#c4654a"/>
  <text x="490" y="291" fill="#e8dfd3" font-size="12" class="body">70</text>

  <text x="40" y="315" fill="#b0a494" font-size="10" font-weight="600" letter-spacing="0.8" class="body">CHAOS</text>
  <rect x="120" y="309" width="350" height="4" rx="2" fill="#3d3530"/>
  <rect x="120" y="309" width="210" height="4" rx="2" fill="#c4654a" opacity="0.6"/>
  <circle cx="330" cy="311" r="7" fill="#c4654a"/>
  <text x="490" y="316" fill="#e8dfd3" font-size="12" class="body">60</text>

  <text x="40" y="340" fill="#b0a494" font-size="10" font-weight="600" letter-spacing="0.8" class="body">WARMTH</text>
  <rect x="120" y="334" width="350" height="4" rx="2" fill="#3d3530"/>
  <rect x="120" y="334" width="280" height="4" rx="2" fill="#c4654a" opacity="0.6"/>
  <circle cx="400" cy="336" r="7" fill="#c4654a"/>
  <text x="490" y="341" fill="#e8dfd3" font-size="12" class="body">80</text>

  <text x="40" y="365" fill="#b0a494" font-size="10" font-weight="600" letter-spacing="0.8" class="body">VERBOSE</text>
  <rect x="120" y="359" width="350" height="4" rx="2" fill="#3d3530"/>
  <rect x="120" y="359" width="175" height="4" rx="2" fill="#c4654a" opacity="0.6"/>
  <circle cx="295" cy="361" r="7" fill="#c4654a"/>
  <text x="490" y="366" fill="#e8dfd3" font-size="12" class="body">50</text>

  <!-- Giulia Card -->
  <rect x="556" y="234" width="520" height="150" rx="8" fill="#352f2a" stroke="#c4654a" stroke-opacity="0.12"/>
  <text x="572" y="260" fill="#f5efe6" font-size="16" font-weight="600" class="display">Giulia</text>
  <rect x="1012" y="247" width="48" height="18" rx="4" fill="none" stroke="#b0a494" stroke-opacity="0.2"/>
  <text x="1022" y="260" fill="#b0a494" font-size="9" font-weight="600" letter-spacing="0.5" class="body">RESET</text>

  <!-- Giulia sliders -->
  <text x="572" y="290" fill="#b0a494" font-size="10" font-weight="600" letter-spacing="0.8" class="body">ENERGY</text>
  <rect x="652" y="284" width="350" height="4" rx="2" fill="#3d3530"/>
  <rect x="652" y="284" width="175" height="4" rx="2" fill="#c4654a" opacity="0.6"/>
  <circle cx="827" cy="286" r="7" fill="#c4654a"/>
  <text x="1022" y="291" fill="#e8dfd3" font-size="12" class="body">50</text>

  <text x="572" y="315" fill="#b0a494" font-size="10" font-weight="600" letter-spacing="0.8" class="body">CHAOS</text>
  <rect x="652" y="309" width="350" height="4" rx="2" fill="#3d3530"/>
  <rect x="652" y="309" width="140" height="4" rx="2" fill="#c4654a" opacity="0.6"/>
  <circle cx="792" cy="311" r="7" fill="#c4654a"/>
  <text x="1022" y="316" fill="#e8dfd3" font-size="12" class="body">40</text>

  <text x="572" y="340" fill="#b0a494" font-size="10" font-weight="600" letter-spacing="0.8" class="body">WARMTH</text>
  <rect x="652" y="334" width="350" height="4" rx="2" fill="#3d3530"/>
  <rect x="652" y="334" width="245" height="4" rx="2" fill="#c4654a" opacity="0.6"/>
  <circle cx="897" cy="336" r="7" fill="#c4654a"/>
  <text x="1022" y="341" fill="#e8dfd3" font-size="12" class="body">70</text>

  <text x="572" y="365" fill="#b0a494" font-size="10" font-weight="600" letter-spacing="0.8" class="body">VERBOSE</text>
  <rect x="652" y="359" width="350" height="4" rx="2" fill="#3d3530"/>
  <rect x="652" y="359" width="105" height="4" rx="2" fill="#c4654a" opacity="0.6"/>
  <circle cx="757" cy="361" r="7" fill="#c4654a"/>
  <text x="1022" y="366" fill="#e8dfd3" font-size="12" class="body">30</text>

  <!-- Now Streaming -->
  <rect x="24" y="400" width="1052" height="56" rx="8" fill="#352f2a" stroke="#c4654a" stroke-opacity="0.12"/>
  <rect x="24" y="400" width="4" height="56" rx="2" fill="#c4654a"/>
  <text x="42" y="420" fill="#c4654a" font-size="10" font-weight="600" letter-spacing="1" class="body">NOW STREAMING</text>
  <text x="42" y="445" fill="#f5efe6" font-size="17" font-weight="600" class="body">Volare &#8212; Domenico Modugno</text>
  <text x="380" y="445" fill="#b0a494" font-size="12" class="body">music &#183; 3:28 &#183; from Spotify</text>

  <!-- Three-column grid -->
  <!-- Segment Log -->
  <text x="24" y="488" fill="#c4654a" font-size="11" font-weight="600" letter-spacing="1" class="body">SEGMENT LOG</text>
  <line x1="24" y1="496" x2="350" y2="496" stroke="#7a8f6d" stroke-opacity="0.15"/>

  <rect x="32" y="508" width="22" height="22" rx="4" fill="#7a8f6d" fill-opacity="0.25"/>
  <text x="38" y="524" fill="#7a8f6d" font-size="11" class="body">&#9835;</text>
  <text x="62" y="518" fill="#b0a494" font-size="11" class="body">23:42</text>
  <text x="110" y="518" fill="#e8dfd3" font-size="13" class="body">Volare</text>
  <text x="280" y="518" fill="#c4654a" font-size="9" font-weight="700" letter-spacing="0.5" class="body">NOW</text>

  <rect x="32" y="536" width="22" height="22" rx="4" fill="#c4654a" fill-opacity="0.2"/>
  <text x="36" y="552" fill="#c4654a" font-size="11" class="body">&#127897;</text>
  <text x="62" y="548" fill="#b0a494" font-size="11" class="body">23:37</text>
  <text x="110" y="548" fill="#e8dfd3" font-size="13" class="body">Marco &amp; Giulia banter</text>

  <rect x="32" y="564" width="22" height="22" rx="4" fill="#7a8f6d" fill-opacity="0.25"/>
  <text x="38" y="580" fill="#7a8f6d" font-size="11" class="body">&#9835;</text>
  <text x="62" y="578" fill="#b0a494" font-size="11" class="body">23:33</text>
  <text x="110" y="578" fill="#e8dfd3" font-size="13" class="body">Con Te Partiro</text>

  <rect x="32" y="592" width="22" height="22" rx="4" fill="#d4917a" fill-opacity="0.2"/>
  <text x="36" y="608" fill="#d4917a" font-size="11" class="body">&#128226;</text>
  <text x="62" y="608" fill="#b0a494" font-size="11" class="body">23:29</text>
  <text x="110" y="608" fill="#e8dfd3" font-size="13" class="body">Pasta Perfetta ad spot</text>

  <!-- Upcoming -->
  <text x="390" y="488" fill="#c4654a" font-size="11" font-weight="600" letter-spacing="1" class="body">UPCOMING</text>
  <line x1="390" y1="496" x2="716" y2="496" stroke="#7a8f6d" stroke-opacity="0.15"/>

  <text x="398" y="518" fill="#e8dfd3" font-size="13" class="body">&#127897;&#65039; Marco &amp; Giulia banter</text>
  <text x="398" y="548" fill="#e8dfd3" font-size="13" class="body">&#9835; Nel Blu Dipinto Di Blu</text>
  <text x="398" y="578" fill="#e8dfd3" font-size="13" class="body">&#9835; That's Amore &#8212; Dean Martin</text>
  <text x="398" y="608" fill="#e8dfd3" font-size="13" class="body">&#128226; Caffe Impossibile ad break</text>

  <!-- Scripts -->
  <text x="756" y="488" fill="#c4654a" font-size="11" font-weight="600" letter-spacing="1" class="body">SCRIPTS</text>
  <line x1="756" y1="496" x2="1076" y2="496" stroke="#7a8f6d" stroke-opacity="0.15"/>

  <rect x="756" y="506" width="320" height="108" rx="6" fill="#2a2320" fill-opacity="0.6" stroke="#7a8f6d" stroke-opacity="0.12"/>
  <text x="770" y="528" fill="#c4654a" font-size="13" font-weight="600" class="body">Marco:</text>
  <text x="834" y="528" fill="#e8dfd3" font-size="13" class="body">Che canzone, eh? Mi ricorda</text>
  <text x="770" y="548" fill="#e8dfd3" font-size="13" class="body">quella sera a Milano quando...</text>
  <text x="770" y="574" fill="#c4654a" font-size="13" font-weight="600" class="body">Giulia:</text>
  <text x="838" y="574" fill="#e8dfd3" font-size="13" class="body">Marco, tu non sei mai stato</text>
  <text x="770" y="594" fill="#e8dfd3" font-size="13" class="body">a Milano.</text>

  <!-- Debug toggle -->
  <text x="24" y="650" fill="#b0a494" font-size="12" class="body">&#9654; Debug logs</text>

  <!-- Player Bar -->
  <rect x="0" y="670" width="1100" height="50" fill="#3d3530"/>
  <rect x="0" y="670" width="1100" height="2" fill="#c4654a"/>
  <text x="24" y="700" fill="#c4654a" font-size="11" font-weight="700" letter-spacing="1.2" class="body">LIVE STREAM</text>

  <!-- Audio player mockup -->
  <rect x="140" y="686" width="936" height="28" rx="4" fill="#2a2320" stroke="#7a8f6d" stroke-opacity="0.15"/>
  <rect x="144" y="698" width="400" height="4" rx="2" fill="#c4654a" opacity="0.5"/>
  <circle cx="544" cy="700" r="6" fill="#c4654a"/>
  <text x="930" y="704" fill="#b0a494" font-size="11" class="body">&#128266; 0:00 / live</text>
</svg>
